<?xml version="1.0" encoding="UTF-8"?>
<svg width="19px" height="21px" viewBox="0 0 19 21" version="1.1" xmlns="http://www.w3.org/2000/svg" xmlns:xlink="http://www.w3.org/1999/xlink">
    <!-- Generator: Sketch 44.1 (41455) - http://www.bohemiancoding.com/sketch -->
    <title>Slice 1</title>
    <desc>Created with Sketch.</desc>
    <defs></defs>
    <g id="Page-1" stroke="none" stroke-width="1" fill="none" fill-rule="evenodd">
        <g id="Group-2-Copy">
            <path d="M7.84595433,9.98358462 C7.84595433,9.98358462 5.76915163,7.45908462 5.6537157,4.70485385 C5.6537157,1.95085385 7.61519848,0.114738462 7.61519848,4.61538462e-05 C7.73063441,0.114738462 9.6921172,2.52454615 9.80743712,5.27866154 C9.80743712,8.03277692 7.84595433,9.98358462 7.84595433,9.98358462" id="Fill-23" fill="#BDC951"></path>
            <path d="M11.1920651,6.19674231 C11.1920651,6.88524231 11.7690127,7.45905 12.4612803,7.45905 C13.2689838,7.45905 13.8459314,6.88524231 13.8459314,6.19674231 C13.8459314,5.39343462 13.2689838,4.81962692 12.4612803,4.81962692 C11.7690127,4.81962692 11.1920651,5.39343462 11.1920651,6.19674231 M18.9226763,6.77055 C18.9226763,6.77055 19.1534321,12.3934731 16.3842458,16.1802808 C13.6150596,19.9672038 8.88439049,20.5408962 8.88439049,20.5408962 C8.88439049,20.5408962 8.65363463,15.0327808 11.4228209,11.2459731 C14.1920072,7.45905 18.9226763,6.77055 18.9226763,6.77055" id="Fill-24" fill="#87A04F"></path>
            <path d="M7.73061121,15.6065538 L7.73061121,15.6065538 C7.73061121,14.5737462 7.49985536,11.2459385 5.76912843,8.83601538 C3.69220971,5.8524 0,5.3934 0,5.3934 L0,5.62301538 C0,6.54101538 0.11531992,10.0983231 1.96148278,12.6229385 C3.46145385,14.6885538 5.76912843,15.4918615 6.92290771,15.8360538 L6.92290771,20.4262846 C6.92290771,20.5409769 7.15366356,20.7704769 7.38441942,20.7704769 C7.49985536,20.7704769 7.73061121,20.5409769 7.73061121,20.4262846 L7.73061121,15.8360538 L7.73061121,15.6065538" id="Fill-25" fill="#BDC951"></path>
        </g>
    </g>
</svg>